<?xml version="1.0" encoding="UTF-8"?> <svg xmlns="http://www.w3.org/2000/svg" width="138" height="44" viewBox="0 0 138 44" fill="none"><g clip-path="url(#clip0_225_2430)"><path d="M18.1453 32.8537L19.0042 33.4028C19.6737 33.8313 20.5267 33.5959 20.9592 32.9683C21.3738 32.3648 21.3028 31.4475 20.663 30.9829L19.7625 30.3251C19.6914 30.2707 19.6381 30.0716 19.6618 29.9811C19.6973 29.8785 19.9758 29.794 20.0646 29.8604L22.4876 31.5682C23.1451 32.0329 24.0397 31.8157 24.478 31.176C24.9164 30.5363 24.7861 29.5948 24.1048 29.1121L22.8785 28.243C22.7897 28.1827 22.7364 27.9594 22.766 27.8689C22.8015 27.7663 23.0681 27.6878 23.1688 27.7542L26.0124 29.7638C26.6225 30.1983 27.4341 30.0716 27.9199 29.5164C28.3346 29.0396 28.4767 28.0861 27.908 27.6094C27.2208 27.024 26.51 26.5473 25.7754 25.9981C25.6747 25.9257 25.6214 25.7084 25.6628 25.5998C25.6984 25.5032 25.959 25.4308 26.0479 25.4972L29.5786 28.0801C30.2836 28.5991 31.2492 28.1646 31.6105 27.5128C32.0785 26.6679 31.7468 25.8653 31.0004 25.3403L18.6014 16.6079C18.2578 16.3665 17.8787 16.3182 17.5292 16.5415L14.4368 18.527C14.188 18.6899 13.8266 18.7925 13.5364 18.7744L11.38 18.6295C10.758 18.5873 10.2663 18.1468 10.0945 17.6097C9.90495 17.0062 10.0767 16.3182 10.6218 15.932L18.086 10.5911C18.3941 10.3739 18.7673 10.2653 19.1346 10.3015L23.702 10.736C24.0752 10.7722 24.4662 10.917 24.7683 11.1222L26.9898 12.6852C27.7185 13.1982 28.6426 13.3189 29.4779 13.0352L30.5324 12.6732L30.017 11.2248C29.9755 11.1101 30.0288 10.8868 30.1236 10.8446C30.2599 10.7843 30.485 10.8868 30.5442 11.0196L30.7219 11.4481L34.9576 9.86696C35.2657 9.7523 35.5678 9.93938 35.6448 10.2713L38.4409 22.166C38.5061 22.4496 38.2988 22.691 38.0796 22.7755L35.2005 23.8557L35.3249 24.3264C35.3545 24.429 35.2834 24.6463 35.2005 24.6885C35.1176 24.7308 34.8688 24.6583 34.8273 24.5497L34.2823 23.0833C33.6069 23.3367 33.0145 23.8074 32.6295 24.3868C32.5702 24.4773 32.2977 24.4773 32.2266 24.4109C31.7586 23.9583 33.4944 22.697 34.0868 22.528L30.7338 13.2284L29.6793 13.5844C28.6485 13.9344 27.5348 13.7836 26.6344 13.1499L24.4603 11.611C24.2351 11.4541 23.9093 11.3455 23.625 11.3153L19.0279 10.8748C18.8087 10.8567 18.5422 10.9713 18.3526 11.1101L10.9713 16.3906C10.6454 16.626 10.5329 17.0062 10.6099 17.3683C10.6869 17.7062 11.0009 18.0381 11.3978 18.0683L13.5423 18.2192C13.6726 18.2312 13.9747 18.1649 14.0814 18.0985L17.227 16.0768C17.7957 15.7087 18.4118 15.7871 18.9628 16.1794L31.3203 24.8756C32.3925 25.63 32.7657 26.9274 31.966 28.0258C31.2433 29.0215 29.8393 29.1905 28.85 28.2792C28.9151 29.2629 28.453 30.0414 27.7066 30.4095C26.8891 30.8078 26.042 30.6027 25.2955 29.975C25.3903 30.9648 24.9697 31.7614 24.2351 32.1597C23.4236 32.6002 22.529 32.4191 21.7708 31.7795C21.8418 32.6726 21.5279 33.4089 20.9058 33.8434C20.2424 34.302 19.3774 34.3805 18.6962 33.9158L17.8846 33.3666C17.8194 33.3183 17.7957 33.1071 17.7957 33.0287C17.7957 32.9502 18.0623 32.8295 18.1453 32.8838V32.8537Z" fill="#002F7A"></path><path d="M15.5978 24.9239C16.4449 25.4851 16.7885 26.4748 16.3442 27.4283C16.9307 27.3801 17.3928 27.5551 17.8608 27.8749C18.7612 28.4844 19.0574 29.6612 18.4235 30.5906L17.0551 32.6002C16.4153 33.5416 15.2305 33.6804 14.3419 33.0226C13.8147 32.6364 13.4355 32.1657 13.3941 31.4234C12.6536 31.7674 11.9841 31.6346 11.3799 31.2182C10.8171 30.832 10.4617 30.319 10.4024 29.6009C9.66785 29.969 8.97474 29.8121 8.37641 29.3957C7.73662 28.9552 7.32786 28.3094 7.45819 27.4163C6.80062 27.5792 6.25561 27.4163 5.7106 27.0421C4.85162 26.4628 4.49026 25.3161 5.09451 24.4049L5.76984 23.385L5.31962 21.9487C5.10043 21.2487 4.5495 20.7779 3.96302 20.3917L3.21659 21.7013C3.16328 21.7918 2.93816 21.8582 2.8493 21.822C2.74267 21.7797 2.68935 21.5082 2.74267 21.4056L2.95593 20.9831L0.284203 19.4201C0.076862 19.2994 -0.0771625 19.0278 0.0353939 18.7563L4.75684 7.5013C4.88124 7.2056 5.20114 7.05473 5.48549 7.21767L9.42496 9.5109L9.69747 9.0764C9.74486 8.99794 9.9522 8.94966 10.0411 8.9738C10.1299 8.99794 10.2306 9.25744 10.1773 9.354L9.39534 10.7722L10.2899 11.267C11.1015 11.7136 12.0552 11.6895 12.8787 11.2912L15.1772 10.1808C15.5208 10.0178 16.5042 9.7704 16.5812 10.217C16.6582 10.6636 16.0895 10.3739 15.2542 10.7722L13.0386 11.8404C11.9901 12.3473 10.8408 12.2145 9.83372 11.6774L9.09914 11.2851L4.24737 19.9029C5.35516 20.5547 5.90017 21.5202 6.1786 22.7875L6.93688 21.7194C7.57667 20.7961 8.76147 20.6935 9.6323 21.3513C10.0588 21.6711 10.361 22.0151 10.5446 22.6246C11.297 21.8401 12.3455 21.8521 13.1689 22.4798C13.8206 22.9746 14.176 23.6626 13.9924 24.5678C14.644 24.423 15.1179 24.604 15.6156 24.9359L15.5978 24.9239ZM7.9795 26.336L9.73301 23.7712C10.2129 23.0712 9.96405 22.2686 9.31241 21.8099C8.69631 21.3754 7.86102 21.3392 7.3871 22.0211L5.58028 24.6644C5.10635 25.3524 5.42625 26.149 6.06012 26.5895C6.69399 27.03 7.49966 27.0361 7.9795 26.33V26.336ZM10.669 28.581L13.2045 24.8635C13.6843 24.1575 13.4474 23.379 12.7957 22.9082C12.1441 22.4375 11.3088 22.4496 10.8171 23.1677L8.16907 27.0602C7.71292 27.7301 8.08613 28.5086 8.64892 28.9129C9.34203 29.4138 10.1477 29.3353 10.6631 28.587L10.669 28.581ZM13.6606 30.3975L15.7281 27.362C16.2198 26.6438 15.9532 25.8412 15.272 25.3765C14.6263 24.9359 13.8206 24.9661 13.3467 25.6601L11.2199 28.7681C10.746 29.4621 11.0008 30.2526 11.6287 30.7053C12.3218 31.2061 13.1393 31.1579 13.6547 30.3975H13.6606ZM16.6108 32.2562L17.9378 30.319C18.4354 29.5948 18.1984 28.7801 17.5053 28.3094C16.8655 27.8749 16.0539 27.893 15.58 28.587L14.2056 30.5966C13.7317 31.2967 14.0042 32.0933 14.644 32.5398C15.2838 32.9864 16.1132 32.9804 16.6108 32.2562Z" fill="#002F7A"></path><path d="M14.6856 39.1902C14.6323 39.2808 14.3894 39.323 14.3184 39.2928C14.2295 39.2566 14.1406 39.0152 14.194 38.9307L15.284 37.072C15.3373 36.9875 15.5565 36.9332 15.6513 36.9573C15.746 36.9815 15.8349 37.247 15.7757 37.3436L14.6916 39.1902H14.6856Z" fill="#282828"></path><path d="M24.2885 6.57797C24.2411 6.66849 24.016 6.72884 23.933 6.69867C23.8501 6.6685 23.7375 6.42107 23.7849 6.33658L24.792 4.4175C24.8394 4.32094 25.0823 4.26663 25.1711 4.30887C25.26 4.35112 25.3429 4.58044 25.2896 4.68303L24.2944 6.58401H24.2885V6.57797Z" fill="#282828"></path><path d="M22.8607 39.7454C22.9022 39.8541 22.8311 40.0713 22.7482 40.1136C22.6475 40.1679 22.3868 40.0894 22.3453 39.9748L21.5811 37.9893C21.5397 37.8867 21.6345 37.6755 21.7115 37.6332C21.8063 37.591 22.0551 37.6634 22.0906 37.766L22.8607 39.7515V39.7454Z" fill="#282828"></path><path d="M17.9438 5.90811C18.0031 6.04691 17.9201 6.30641 17.8194 6.34261C17.7187 6.37882 17.4936 6.2883 17.4462 6.18571L16.5931 4.25456C16.5517 4.158 16.6228 3.92264 16.7175 3.88644C16.8123 3.85023 17.0552 3.91058 17.1026 4.01317L17.9438 5.90811Z" fill="#282828"></path><path d="M59.2343 12.8904H53.5176L52.5105 15.5578H47.3507L53.9264 0.241394H58.9085L65.4841 15.5638H60.2414L59.2343 12.8964V12.8904ZM57.8362 9.17295L56.3789 5.32273L54.9157 9.17295H57.8362Z" fill="#002F7A"></path><path d="M68.7779 14.9905C67.7234 14.4655 66.8999 13.7293 66.3075 12.7818C65.7151 11.8343 65.4189 10.7601 65.4189 9.56522C65.4189 8.37032 65.7151 7.30215 66.3075 6.36072C66.8999 5.41928 67.7234 4.68907 68.7779 4.16404C69.8323 3.63901 71.0231 3.37347 72.356 3.37347C73.7896 3.37347 75.0099 3.68729 76.0289 4.31491C77.0478 4.94253 77.7468 5.81155 78.1319 6.92196L74.3701 8.80483C73.914 7.75477 73.2327 7.22973 72.3263 7.22973C71.7517 7.22973 71.2778 7.43492 70.8987 7.84529C70.5195 8.25566 70.33 8.82897 70.33 9.57125C70.33 10.3135 70.5195 10.917 70.8987 11.3214C71.2778 11.7317 71.7576 11.9369 72.3263 11.9369C73.2268 11.9369 73.9081 11.4119 74.3701 10.3618L78.1319 12.2447C77.7468 13.3551 77.0419 14.2241 76.0289 14.8517C75.0099 15.4794 73.7896 15.7932 72.356 15.7932C71.0231 15.7932 69.8323 15.5337 68.7779 15.0086V14.9905Z" fill="#002F7A"></path><path d="M88.1257 15.1474C87.3971 15.5699 86.4018 15.7811 85.14 15.7811C83.4932 15.7811 82.2254 15.3768 81.3368 14.5681C80.4482 13.7594 80.0039 12.5464 80.0039 10.9231V7.85736H78.3926V4.24853H80.0039V0.899191H84.8616V4.24853H87.2668V7.85736H84.8616V10.8808C84.8616 11.2429 84.9564 11.5265 85.14 11.7317C85.3237 11.9369 85.5725 12.0395 85.8687 12.0395C86.2834 12.0395 86.6507 11.9309 86.9646 11.7136L88.1257 15.1474Z" fill="#002F7A"></path><path d="M91.7275 14.9845C90.6908 14.4534 89.8793 13.7172 89.2869 12.7757C88.7004 11.8343 88.4042 10.7661 88.4042 9.57125C88.4042 8.37635 88.7004 7.30819 89.2869 6.36675C89.8733 5.42532 90.6849 4.6951 91.7275 4.17007C92.7643 3.64504 93.9372 3.37951 95.2405 3.37951C96.5438 3.37951 97.7345 3.64504 98.7771 4.17007C99.8138 4.6951 100.625 5.43135 101.206 6.36675C101.787 7.30819 102.077 8.37635 102.077 9.57125C102.077 10.7661 101.787 11.8343 101.206 12.7757C100.625 13.7172 99.8138 14.4534 98.7771 14.9845C97.7404 15.5156 96.5616 15.7811 95.2405 15.7811C93.9194 15.7811 92.7643 15.5156 91.7275 14.9845ZM96.6149 11.3032C96.9703 10.8868 97.154 10.3075 97.154 9.56522C97.154 8.82293 96.9762 8.24359 96.6149 7.83925C96.2594 7.42888 95.7974 7.2237 95.2405 7.2237C94.6836 7.2237 94.2216 7.42888 93.8661 7.83925C93.5107 8.24962 93.327 8.82293 93.327 9.56522C93.327 10.3075 93.5048 10.8868 93.8661 11.3032C94.2216 11.7197 94.6836 11.9248 95.2405 11.9248C95.7974 11.9248 96.2594 11.7197 96.6149 11.3032Z" fill="#002F7A"></path><path d="M112.017 3.37347V7.74873C111.632 7.68838 111.271 7.66424 110.945 7.66424C109.28 7.66424 108.451 8.52723 108.451 10.2472V15.5638H103.593V3.59073H108.214V4.88218C109.073 3.87437 110.341 3.37347 112.017 3.37347Z" fill="#002F7A"></path><path d="M125.725 10.7239H117.562C117.734 11.1765 118.018 11.5205 118.421 11.7619C118.824 12.0033 119.322 12.124 119.926 12.124C120.441 12.124 120.874 12.0576 121.223 11.9248C121.573 11.7921 121.958 11.5688 122.372 11.2429L124.908 13.85C123.765 15.1354 122.053 15.7751 119.772 15.7751C118.356 15.7751 117.106 15.5095 116.034 14.9785C114.962 14.4474 114.126 13.7051 113.54 12.7576C112.953 11.8102 112.657 10.742 112.657 9.55918C112.657 8.37635 112.947 7.29612 113.528 6.35468C114.108 5.41325 114.902 4.68303 115.909 4.158C116.916 3.63297 118.054 3.36744 119.316 3.36744C120.506 3.36744 121.591 3.60883 122.568 4.09162C123.551 4.57441 124.327 5.28048 124.908 6.21588C125.489 7.15128 125.779 8.26773 125.779 9.56522C125.779 9.63764 125.755 10.0239 125.714 10.7239H125.725ZM118.119 7.15732C117.787 7.43492 117.574 7.82718 117.473 8.34015H121.253C121.152 7.84529 120.939 7.45302 120.607 7.16939C120.275 6.88575 119.861 6.74091 119.363 6.74091C118.865 6.74091 118.445 6.87971 118.119 7.15732Z" fill="#002F7A"></path><path d="M128.948 15.4552C127.971 15.238 127.189 14.9543 126.584 14.5983L127.917 11.3395C128.462 11.6774 129.108 11.9369 129.849 12.124C130.595 12.3171 131.318 12.4076 132.017 12.4076C132.574 12.4076 132.965 12.3593 133.19 12.2688C133.415 12.1783 133.522 12.0335 133.522 11.8404C133.522 11.6472 133.379 11.5205 133.101 11.4481C132.822 11.3757 132.366 11.3033 131.738 11.2308C130.779 11.1162 129.961 10.9653 129.292 10.7843C128.616 10.6032 128.03 10.2472 127.52 9.72212C127.011 9.19709 126.756 8.44274 126.756 7.46509C126.756 6.69263 126.987 5.99863 127.443 5.38307C127.9 4.76752 128.587 4.2787 129.493 3.91661C130.405 3.55452 131.495 3.36744 132.769 3.36744C133.658 3.36744 134.529 3.45193 135.382 3.6209C136.235 3.78988 136.957 4.03127 137.562 4.35715L136.229 7.61596C135.198 7.03059 134.067 6.74091 132.834 6.74091C131.774 6.74091 131.247 6.93403 131.247 7.30819C131.247 7.5013 131.389 7.63407 131.679 7.71252C131.963 7.79098 132.42 7.86943 133.03 7.94185C133.989 8.06254 134.801 8.21341 135.47 8.40049C136.134 8.59361 136.726 8.94966 137.23 9.47469C137.733 9.99973 137.994 10.7541 137.994 11.7317C137.994 12.474 137.763 13.1559 137.307 13.7655C136.851 14.381 136.164 14.8698 135.245 15.2319C134.327 15.594 133.219 15.7811 131.916 15.7811C130.915 15.7811 129.926 15.6725 128.954 15.4552H128.948Z" fill="#002F7A"></path><path d="M52.8186 40.7714H56.1656L55.6206 43.5173H47.3507L47.7772 41.3387L52.0958 37.9592C52.5461 37.5971 52.86 37.2954 53.0318 37.06C53.2036 36.8186 53.2925 36.5772 53.2925 36.3238C53.2925 36.0944 53.2036 35.9074 53.0318 35.7686C52.86 35.6298 52.629 35.5573 52.3447 35.5573C52.0425 35.5573 51.7463 35.6479 51.4679 35.8229C51.1895 35.9979 50.9347 36.2453 50.7096 36.5652L48.3933 35.1108C48.7962 34.3987 49.3945 33.8314 50.1942 33.4089C50.994 32.9865 51.8826 32.7692 52.8778 32.7692C53.6361 32.7692 54.3174 32.902 54.9275 33.1615C55.5377 33.421 56.0116 33.7831 56.3552 34.2357C56.6988 34.6944 56.8706 35.2073 56.8706 35.7746C56.8706 36.4445 56.687 37.0661 56.3256 37.6394C55.9642 38.2127 55.3244 38.8463 54.4062 39.5464L52.8127 40.7775L52.8186 40.7714Z" fill="#CE1126"></path><path d="M71.8405 40.7714H75.1876L74.6426 43.5172H66.3727L66.7992 41.3386L71.1178 37.9591C71.568 37.597 71.882 37.2953 72.0538 37.0599C72.2256 36.8185 72.3145 36.5771 72.3145 36.3237C72.3145 36.0944 72.2256 35.9073 72.0538 35.7685C71.882 35.6297 71.651 35.5573 71.3666 35.5573C71.0645 35.5573 70.7683 35.6478 70.4899 35.8228C70.2114 35.9978 69.9567 36.2452 69.7316 36.5651L67.4153 35.1107C67.8181 34.3986 68.4165 33.8313 69.2162 33.4089C70.0159 32.9864 70.9046 32.7692 71.8998 32.7692C72.6581 32.7692 73.3393 32.9019 73.9495 33.1614C74.5597 33.4209 75.0336 33.783 75.3772 34.2356C75.7208 34.6943 75.8926 35.2072 75.8926 35.7745C75.8926 36.4444 75.7089 37.066 75.3476 37.6393C74.9862 38.2126 74.3464 38.8462 73.4282 39.5463L71.8346 40.7774H71.8405V40.7714Z" fill="#CE1126"></path><path d="M83.5347 37.066C84.0264 37.3013 84.4233 37.6513 84.7313 38.11C85.0334 38.5686 85.1875 39.1178 85.1875 39.7454C85.1875 40.5481 84.992 41.2481 84.6069 41.8576C84.2159 42.4611 83.6828 42.9318 82.9897 43.2637C82.2965 43.5957 81.5205 43.7586 80.6437 43.7586C79.767 43.7586 78.9969 43.5957 78.3334 43.2698C77.6699 42.9439 77.1486 42.4611 76.7813 41.8275C76.4081 41.1938 76.2185 40.4153 76.2185 39.492C76.2185 38.3997 76.4614 37.3375 76.9472 36.3056C77.4329 35.2736 78.1734 34.4287 79.1746 33.7589C80.1698 33.095 81.402 32.7631 82.8653 32.7631C83.511 32.7631 84.1271 32.8355 84.7076 32.9804C85.2882 33.1252 85.7562 33.3304 86.1057 33.5899L84.5299 36.0219C84.0382 35.684 83.4162 35.509 82.6698 35.509C81.4198 35.509 80.5727 36.0883 80.1224 37.253C80.626 36.891 81.2302 36.7099 81.947 36.7099C82.5098 36.7099 83.0311 36.8306 83.5228 37.066H83.5347ZM81.4435 40.9826C81.6627 40.7653 81.7752 40.4696 81.7752 40.1136C81.7752 39.8239 81.6864 39.5946 81.5146 39.4196C81.3428 39.2506 81.1058 39.1661 80.7978 39.1661C80.466 39.1661 80.1876 39.2747 79.9743 39.4859C79.7611 39.6972 79.6485 39.9868 79.6485 40.3368C79.6485 40.6265 79.7374 40.8619 79.9092 41.0429C80.081 41.224 80.3179 41.3145 80.626 41.3145C80.9518 41.3145 81.2243 41.2059 81.4435 40.9826Z" fill="#CE1126"></path><path d="M59.5838 43.2698C58.9855 42.9439 58.5175 42.4732 58.1916 41.8576C57.8599 41.2421 57.7 40.5058 57.7 39.6428C57.7 38.3393 57.9428 37.1686 58.4227 36.1185C58.9025 35.0745 59.5719 34.2537 60.4191 33.6563C61.2662 33.0588 62.2259 32.7631 63.2863 32.7631C64.092 32.7631 64.7969 32.9261 65.3952 33.252C65.9936 33.5778 66.4616 34.0485 66.7874 34.6641C67.1191 35.2797 67.2791 36.0159 67.2791 36.8789C67.2791 38.1824 67.0362 39.3532 66.5564 40.4032C66.0765 41.4533 65.4071 42.274 64.56 42.8654C63.7069 43.4629 62.7531 43.7586 61.6927 43.7586C60.8871 43.7586 60.1821 43.5957 59.5838 43.2698ZM63.0079 40.2584C63.2745 39.8179 63.4699 39.2868 63.6062 38.6712C63.7365 38.0557 63.8076 37.4884 63.8076 36.9694C63.8076 36.0581 63.5173 35.6055 62.9368 35.6055C62.5636 35.6055 62.2437 35.8288 61.9771 36.2633C61.7105 36.7039 61.515 37.2349 61.3788 37.8505C61.2484 38.4661 61.1773 39.0333 61.1773 39.5523C61.1773 40.4636 61.4676 40.9162 62.0482 40.9162C62.4214 40.9162 62.7413 40.6989 63.0079 40.2584Z" fill="#CE1126"></path><path d="M56.0116 27.9292V30.0475H47.3507V18.6537H55.8043V20.7719H49.9217V23.2462H55.1171V25.298H49.9217V27.9353H56.0116V27.9292Z" fill="#002F7A"></path><path d="M57.8955 17.9657H60.3895V30.0475H57.8955V17.9657Z" fill="#002F7A"></path><path d="M71.0823 26.3783H64.5777C64.6962 26.9214 64.9746 27.3499 65.4071 27.6637C65.8454 27.9775 66.3845 28.1344 67.0362 28.1344C67.4864 28.1344 67.8774 28.068 68.2269 27.9292C68.5705 27.7965 68.8963 27.5792 69.1925 27.2835L70.5195 28.75C69.7079 29.6914 68.529 30.1682 66.971 30.1682C65.9995 30.1682 65.1464 29.975 64.4 29.5888C63.6536 29.2026 63.0789 28.6715 62.6761 27.9835C62.2733 27.3016 62.0659 26.5231 62.0659 25.6541C62.0659 24.7851 62.2673 24.0247 62.6642 23.3367C63.0612 22.6487 63.6121 22.1116 64.3111 21.7254C65.0102 21.3392 65.7921 21.1461 66.6511 21.1461C67.5101 21.1461 68.2565 21.3332 68.9378 21.7013C69.619 22.0694 70.1522 22.6005 70.5432 23.2884C70.9342 23.9764 71.1237 24.779 71.1237 25.6903C71.1237 25.7205 71.106 25.9498 71.0764 26.3722H71.0823V26.3783ZM65.2471 23.566C64.8621 23.8919 64.631 24.3385 64.5422 24.8997H68.7778C68.6949 24.3445 68.4579 23.904 68.0729 23.5721C67.6878 23.2402 67.2198 23.0772 66.6689 23.0772C66.1179 23.0772 65.6322 23.2402 65.2471 23.566Z" fill="#002F7A"></path><path d="M74.4768 29.5948C73.7482 29.2086 73.1795 28.6775 72.7648 27.9896C72.356 27.3076 72.1487 26.5291 72.1487 25.6601C72.1487 24.7911 72.356 24.0187 72.7648 23.3307C73.1735 22.6487 73.7422 22.1116 74.4768 21.7254C75.2055 21.3392 76.0289 21.1461 76.9471 21.1461C77.8654 21.1461 78.6414 21.3392 79.3227 21.7254C79.998 22.1116 80.4897 22.6608 80.8037 23.379L78.8724 24.4351C78.4222 23.6324 77.7824 23.2281 76.9412 23.2281C76.2896 23.2281 75.7505 23.4453 75.3299 23.8799C74.9093 24.3144 74.6901 24.9058 74.6901 25.6541C74.6901 26.4024 74.9034 26.9938 75.3299 27.4283C75.7564 27.8628 76.2955 28.0801 76.9412 28.0801C77.7943 28.0801 78.44 27.6758 78.8724 26.8731L80.8037 27.9473C80.4956 28.6413 80.0039 29.1845 79.3227 29.5767C78.6473 29.969 77.8535 30.1621 76.9471 30.1621C76.0408 30.1621 75.2055 29.969 74.4768 29.5828V29.5948Z" fill="#002F7A"></path><path d="M87.9065 29.619C87.6636 29.8061 87.3615 29.9449 87.0061 30.0354C86.6506 30.1259 86.2715 30.1742 85.8805 30.1742C84.8557 30.1742 84.0678 29.9087 83.505 29.3776C82.9481 28.8465 82.6638 28.062 82.6638 27.0361V23.4393H81.3368V21.484H82.6638V19.3537H85.1578V21.484H87.2964V23.4393H85.1578V27.0059C85.1578 27.374 85.2526 27.6577 85.4362 27.8628C85.6199 28.062 85.8864 28.1646 86.23 28.1646C86.6269 28.1646 86.9587 28.056 87.2371 27.8387L87.9065 29.6311V29.619Z" fill="#002F7A"></path><path d="M90.6967 29.5948C89.9799 29.2086 89.4171 28.6775 89.0084 27.9896C88.6055 27.3076 88.3982 26.5291 88.3982 25.6601C88.3982 24.7911 88.5996 24.0187 89.0084 23.3307C89.4112 22.6487 89.974 22.1116 90.6967 21.7254C91.4135 21.3392 92.2251 21.1461 93.1315 21.1461C94.0379 21.1461 94.8494 21.3392 95.5603 21.7254C96.2712 22.1116 96.834 22.6427 97.2368 23.3307C97.6397 24.0126 97.847 24.7911 97.847 25.6601C97.847 26.5291 97.6456 27.3016 97.2368 27.9896C96.834 28.6715 96.2712 29.2086 95.5603 29.5948C94.8435 29.9811 94.0379 30.1742 93.1315 30.1742C92.2251 30.1742 91.4135 29.9811 90.6967 29.5948ZM94.7073 27.4283C95.116 26.9878 95.3234 26.4024 95.3234 25.6601C95.3234 24.9178 95.116 24.3325 94.7073 23.8919C94.2985 23.4514 93.7713 23.2341 93.1315 23.2341C92.4917 23.2341 91.9644 23.4514 91.5498 23.8919C91.1351 24.3325 90.9278 24.9178 90.9278 25.6601C90.9278 26.4024 91.1351 26.9878 91.5498 27.4283C91.9644 27.8689 92.4917 28.0861 93.1315 28.0861C93.7713 28.0861 94.2926 27.8689 94.7073 27.4283Z" fill="#002F7A"></path><path d="M103.096 21.478C103.599 21.2607 104.186 21.1521 104.843 21.1521V23.4936C104.565 23.4695 104.381 23.4635 104.286 23.4635C103.576 23.4635 103.013 23.6686 102.61 24.073C102.207 24.4773 102 25.0929 102 25.9015V30.0354H99.5057V21.2788H101.887V22.4375C102.183 22.0151 102.586 21.6952 103.096 21.478Z" fill="#002F7A"></path><path d="M112.823 22.1237C113.534 22.7694 113.895 23.7411 113.895 25.0446V30.0414H111.561V28.9491C111.093 29.7638 110.216 30.1682 108.943 30.1682C108.279 30.1682 107.711 30.0535 107.225 29.8242C106.739 29.5948 106.372 29.281 106.117 28.8827C105.862 28.4784 105.732 28.0258 105.732 27.5128C105.732 26.6981 106.034 26.0584 106.632 25.5937C107.237 25.1291 108.161 24.8937 109.423 24.8937H111.401C111.401 24.3385 111.235 23.9161 110.904 23.6143C110.572 23.3186 110.08 23.1677 109.417 23.1677C108.961 23.1677 108.51 23.2402 108.066 23.385C107.622 23.5298 107.248 23.729 106.94 23.9764L106.046 22.2022C106.514 21.8642 107.077 21.6047 107.734 21.4237C108.392 21.2366 109.061 21.1461 109.754 21.1461C111.087 21.1461 112.106 21.472 112.823 22.1116V22.1237ZM110.696 28.1646C111.028 27.9654 111.259 27.6697 111.401 27.2775V26.3843H109.689C108.664 26.3843 108.155 26.7283 108.155 27.4102C108.155 27.7361 108.279 27.9956 108.528 28.1827C108.777 28.3698 109.12 28.4663 109.559 28.4663C109.997 28.4663 110.365 28.3637 110.696 28.1646Z" fill="#002F7A"></path><path d="M116.146 17.9657H118.64V30.0475H116.146V17.9657Z" fill="#002F7A"></path><path d="M129.327 26.3783H122.823C122.941 26.9214 123.22 27.3499 123.652 27.6637C124.09 27.9775 124.63 28.1344 125.281 28.1344C125.731 28.1344 126.122 28.068 126.472 27.9292C126.815 27.7965 127.141 27.5792 127.438 27.2835L128.764 28.75C127.953 29.6914 126.774 30.1682 125.216 30.1682C124.244 30.1682 123.391 29.975 122.645 29.5888C121.899 29.2026 121.324 28.6715 120.921 27.9835C120.518 27.3016 120.311 26.5231 120.311 25.6541C120.311 24.7851 120.512 24.0247 120.909 23.3367C121.306 22.6487 121.857 22.1116 122.556 21.7254C123.255 21.3392 124.037 21.1461 124.896 21.1461C125.755 21.1461 126.502 21.3332 127.183 21.7013C127.864 22.0694 128.397 22.6005 128.788 23.2884C129.179 23.9764 129.369 24.779 129.369 25.6903C129.369 25.7205 129.351 25.9498 129.321 26.3722H129.327V26.3783ZM123.498 23.566C123.113 23.8919 122.882 24.3385 122.793 24.8997H127.029C126.946 24.3445 126.709 23.904 126.324 23.5721C125.939 23.2402 125.471 23.0772 124.92 23.0772C124.369 23.0772 123.883 23.2402 123.498 23.566Z" fill="#002F7A"></path><path d="M131.839 29.9026C131.158 29.7216 130.613 29.4983 130.21 29.2267L131.039 27.4042C131.424 27.6516 131.886 27.8568 132.431 28.0137C132.976 28.1706 133.51 28.2491 134.031 28.2491C135.085 28.2491 135.613 27.9835 135.613 27.4525C135.613 27.205 135.47 27.024 135.18 26.9154C134.89 26.8067 134.452 26.7162 133.853 26.6378C133.148 26.5291 132.568 26.4024 132.112 26.2636C131.655 26.1248 131.259 25.8713 130.921 25.5153C130.583 25.1592 130.417 24.6463 130.417 23.9824C130.417 23.4272 130.577 22.9384 130.891 22.5099C131.205 22.0815 131.661 21.7496 132.266 21.5082C132.87 21.2668 133.581 21.1521 134.398 21.1521C135.008 21.1521 135.613 21.2185 136.211 21.3573C136.815 21.4901 137.313 21.6832 137.704 21.9185L136.874 23.7229C136.116 23.2884 135.293 23.0712 134.398 23.0712C133.865 23.0712 133.468 23.1496 133.202 23.3005C132.935 23.4514 132.805 23.6505 132.805 23.8859C132.805 24.1575 132.947 24.3445 133.237 24.4532C133.527 24.5618 133.984 24.6644 134.612 24.7609C135.316 24.8816 135.891 25.0084 136.335 25.1411C136.786 25.2799 137.171 25.5213 137.502 25.8834C137.834 26.2395 138 26.7404 138 27.3801C138 27.9232 137.84 28.406 137.52 28.8284C137.2 29.2509 136.732 29.5828 136.122 29.8121C135.512 30.0475 134.783 30.1621 133.942 30.1621C133.225 30.1621 132.532 30.0716 131.851 29.8966H131.839V29.9026Z" fill="#002F7A"></path><path d="M42.0487 0H40.4611V43.2758H42.0487V0Z" fill="#FCD116"></path><path d="M42.0487 19.1304H40.4611V42.3827H42.0487V19.1304Z" fill="#002F7A"></path><path d="M42.0487 33.2459H40.4611V44H42.0487V33.2459Z" fill="#CE1126"></path></g><defs><clipPath id="clip0_225_2430"><rect width="138" height="44" fill="white"></rect></clipPath></defs></svg> 